# xmcd
#
# Track frame offsets:
#	150
#	15668
#	31508
#	47283
#	64865
#	83114
#	98528
#	116745
#	132982
#	146064
#	162316
#	185805
#
# Disc length: 2964 seconds
#
# Revision: 1
# Processed by: cddbd v1.5.2PL0 Copyright (c) Steve Scherf et al.
# Submitted via: audiograbber 1.83.01
#
DISCID=980b920c
DTITLE=Mary Chapin Carpenter - Come Darkness, Come Light
DYEAR=1900
DGENRE=
TTITLE0=Once in Royal David's City
TTITLE1=Hot Buttered Rum
TTITLE2=Still, Still, Still
TTITLE3=On a Quiet Christmas Morn
TTITLE4=Come Darkness, Come Light
TTITLE5=Christmas Time in the City
TTITLE6=Candlelight Carol
TTITLE7=The Longest Night of the Year
TTITLE8=Thanksgiving Song
TTITLE9=Bells Are Ringing
TTITLE10=Christmas Carol
TTITLE11=Children, Go Where I Send Thee
EXTD=
EXTT0=
EXTT1=
EXTT2=
EXTT3=
EXTT4=
EXTT5=
EXTT6=
EXTT7=
EXTT8=
EXTT9=
EXTT10=
EXTT11=
PLAYORDER=
